<svg width="1390" height="242" viewBox="0 0 1390 242" fill="none" xmlns="http://www.w3.org/2000/svg">
<path d="M94.1032 119.304C85.782 116.276 76.5307 113.858 66.2984 112.031L58.62 110.661C52.413 109.562 47.4913 107.972 43.8212 105.875C40.168 103.778 38.3415 100.53 38.3415 96.1499C38.3415 92.1415 40.0666 88.9788 43.5506 86.6956C47.0177 84.4124 52.0409 83.2792 58.6031 83.2792C65.1653 83.2792 70.7127 84.7337 75.1777 87.6596C79.6596 90.5856 82.6193 95.5241 84.0907 102.458L116.141 92.5982C113.046 81.6387 106.466 72.7932 96.4202 66.0281C86.374 59.2799 73.7739 55.8804 58.6031 55.8804C42.5358 55.8804 29.5637 59.4997 19.7035 66.7046C9.84328 73.9095 4.90473 84.2771 4.90473 97.7904C4.90473 106.737 7.27253 114.061 12.025 119.709C16.7606 125.375 23.0691 129.806 30.9167 133.003C38.7812 136.2 47.4406 138.72 56.9456 140.546L64.6071 141.916C72.6407 143.371 78.4926 145.248 82.1458 147.531C85.7989 149.814 87.6255 153.062 87.6255 157.256C87.6255 161.45 85.6975 164.985 81.8582 167.81C78.019 170.634 72.0995 172.038 64.049 172.038C58.7553 172.038 53.8675 171.277 49.3856 169.721C44.9036 168.165 41.1659 165.56 38.1554 161.907C36.5825 160.013 35.2802 157.713 34.1809 155.057H0C2.3678 169.298 9.21751 180.258 20.5491 187.936C31.8807 195.598 46.392 199.437 64.1167 199.437C81.8413 199.437 95.2871 195.564 105.621 187.801C115.938 180.038 121.096 169.027 121.096 154.787C121.096 145.282 118.661 137.772 113.84 132.191C108.986 126.61 102.407 122.331 94.1032 119.321V119.304Z" fill="white"/>
<path d="M264.618 158.879V108.191C264.618 91.2107 259.409 78.2385 249.007 69.2916C238.589 60.3447 224.433 55.8628 206.556 55.8628C194.869 55.8628 184.958 57.6386 176.823 61.2073C168.705 64.7759 162.227 69.4269 157.39 75.1773C152.536 80.9277 149.035 87.27 146.837 94.2212L178.616 104.893C179.901 98.7031 182.624 93.6292 186.835 89.6885C191.03 85.7647 197.423 83.8028 206.015 83.8028C214.606 83.8028 221.169 85.8493 225.194 89.9591C229.202 94.0689 231.232 99.3288 231.232 105.705V113.367H193.973C183.757 113.367 174.658 114.973 166.726 118.153C158.777 121.349 152.57 126.102 148.105 132.393C143.623 138.685 141.391 146.499 141.391 155.818C141.391 165.137 143.623 173.035 148.105 179.513C152.57 186.007 158.642 190.929 166.32 194.311C173.982 197.694 182.658 199.385 192.349 199.385C202.04 199.385 209.33 198.015 214.809 195.276C220.289 192.553 224.314 189.39 226.868 185.838C229.422 182.27 231.063 179.394 231.79 177.196H236.999V177.466C236.999 182.946 239.198 187.326 243.578 190.624C247.959 193.906 253.54 195.546 260.288 195.546H283.29V167.048H272.33C267.205 167.048 264.668 164.308 264.668 158.828L264.618 158.879ZM231.215 141.899C231.215 150.845 228.154 158.016 222.048 163.395C215.926 168.79 208.027 171.479 198.353 171.479C191.047 171.479 185.482 169.923 181.643 166.828C177.804 163.716 175.876 159.708 175.876 154.769C175.876 149.831 177.703 146.008 181.356 143.268C185.009 140.529 190.032 139.159 196.425 139.159H231.215V141.899Z" fill="white"/>
<path d="M482.541 62.8645C475.691 59.2959 468.081 57.52 459.675 57.52C449.257 57.52 441.24 59.4312 435.574 63.2704C429.908 67.1096 425.528 71.9467 422.416 77.7816H417.494C414.399 71.7607 409.917 66.8728 404.065 63.1351C398.23 59.3974 390.467 57.52 380.776 57.52C371.83 57.52 364.608 59.2113 359.145 62.577C353.665 65.9595 349.741 69.9341 347.357 74.5005H342.435V59.7018H308.457V195.58H342.976V115.311C342.976 106.009 345.124 98.8381 349.403 93.815C353.699 88.7919 359.771 86.2719 367.635 86.2719C374.569 86.2719 379.965 88.1492 383.804 91.887C387.643 95.6247 389.554 101.257 389.554 108.732V195.58H424.056V115.311C424.056 106.009 426.204 98.8381 430.5 93.815C434.779 88.7919 440.868 86.2719 448.715 86.2719C455.65 86.2719 461.045 88.1492 464.884 91.887C468.723 95.6247 470.634 101.257 470.634 108.732V195.58H505.137V106.28C505.137 95.3203 503.09 86.2381 498.98 79.0332C494.854 71.8283 489.391 66.4331 482.524 62.8645H482.541Z" fill="white"/>
<path d="M654.443 63.9647C645.124 58.5864 635.01 55.8804 624.034 55.8804C611.789 55.8804 602.385 57.9437 595.84 62.0367C589.261 66.1465 584.424 70.8483 581.312 76.142H576.39V59.7027H542.412V250.361H576.948V179.953H581.87C583.882 183.065 586.572 186.109 589.937 189.12C593.32 192.147 597.802 194.6 603.366 196.528C608.947 198.439 615.848 199.403 624.051 199.403C635.027 199.403 645.141 196.714 654.46 191.319C663.779 185.94 671.271 178.025 676.937 167.624C682.603 157.205 685.427 144.622 685.427 129.823V125.443C685.427 110.644 682.603 98.0441 676.937 87.6258C671.271 77.2075 663.779 69.3261 654.46 63.9309L654.443 63.9647ZM650.874 129.028C650.874 142.187 647.373 152.182 640.338 159.032C633.319 165.882 624.423 169.315 613.632 169.315C602.842 169.315 594.199 165.899 587.062 159.032C579.959 152.182 576.39 142.187 576.39 129.028V126.289C576.39 113.147 579.959 103.152 587.062 96.2852C594.199 89.4355 603.045 86.0191 613.632 86.0191C624.22 86.0191 633.099 89.4355 640.202 96.2852C647.34 103.135 650.874 113.147 650.874 126.289V129.028Z" fill="white"/>
<path d="M831.674 158.879V108.191C831.674 91.2107 826.482 78.2385 816.063 69.2916C805.645 60.3447 791.489 55.8628 773.595 55.8628C761.908 55.8628 751.998 57.6386 743.879 61.2073C735.744 64.7759 729.284 69.4269 724.446 75.1773C719.593 80.9277 716.092 87.27 713.876 94.2212L745.672 104.893C746.941 98.7031 749.68 93.6292 753.892 89.6885C758.086 85.7647 764.479 83.8028 773.071 83.8028C781.663 83.8028 788.225 85.8493 792.25 89.9591C796.275 94.0689 798.271 99.3288 798.271 105.705V113.367H761.012C750.78 113.367 741.698 114.973 733.749 118.153C725.816 121.349 719.592 126.102 715.127 132.393C710.646 138.685 708.413 146.499 708.413 155.818C708.413 165.137 710.646 173.035 715.127 179.513C719.592 186.007 725.664 190.929 733.343 194.311C741.004 197.694 749.681 199.385 759.355 199.385C769.029 199.385 776.335 198.015 781.832 195.276C787.312 192.553 791.337 189.39 793.891 185.838C796.428 182.27 798.085 179.394 798.812 177.196H804.005V177.466C804.005 182.946 806.203 187.326 810.584 190.624C814.981 193.906 820.545 195.546 827.311 195.546H850.312V167.048H839.336C834.228 167.048 831.674 164.308 831.674 158.828V158.879ZM798.254 141.899C798.254 150.845 795.193 158.016 789.087 163.395C782.965 168.79 775.067 171.479 765.393 171.479C758.086 171.479 752.505 169.923 748.666 166.828C744.827 163.716 742.915 159.708 742.915 154.769C742.915 149.831 744.742 146.008 748.395 143.268C752.048 140.529 757.071 139.159 763.464 139.159H798.237V141.899H798.254Z" fill="white"/>
<path d="M892.763 0C886.539 0 881.296 2.01263 877 6.02098C872.721 10.0462 870.573 15.34 870.573 21.9191C870.573 28.4982 872.721 33.7919 877 37.8002C881.296 41.8255 886.539 43.8381 892.763 43.8381C898.987 43.8381 904.45 41.8255 908.661 37.8002C912.855 33.7919 914.953 28.4982 914.953 21.9191C914.953 15.34 912.855 10.0462 908.661 6.02098C904.45 2.01263 899.156 0 892.763 0Z" fill="#F84970"/>
<path d="M910.014 59.7192H875.512V195.597H910.014V59.7192Z" fill="white"/>
<path d="M1077.67 59.7194H1032.73L987.813 109.849H982.892V3.83936H948.355V195.597H982.892V141.628H987.813L1035.49 195.597H1079.87L1014.92 125.477L1077.67 59.7194Z" fill="white"/>
<path d="M1214.63 158.879V108.191C1214.63 91.2107 1209.44 78.2385 1199.02 69.2916C1188.6 60.3447 1174.45 55.8628 1156.55 55.8628C1144.87 55.8628 1134.95 57.6386 1126.84 61.2073C1118.7 64.7759 1112.24 69.4269 1107.4 75.1773C1102.55 80.9277 1099.05 87.27 1096.83 94.2212L1128.63 104.893C1129.9 98.7031 1132.64 93.6292 1136.85 89.6885C1141.04 85.7647 1147.44 83.8028 1156.03 83.8028C1164.62 83.8028 1171.18 85.8493 1175.21 89.9591C1179.22 94.0689 1181.23 99.3288 1181.23 105.705V113.367H1143.97C1133.74 113.367 1124.65 114.973 1116.71 118.153C1108.77 121.349 1102.55 126.102 1098.08 132.393C1093.6 138.685 1091.37 146.499 1091.37 155.818C1091.37 165.137 1093.6 173.035 1098.08 179.513C1102.55 186.007 1108.62 190.929 1116.3 194.311C1123.96 197.694 1132.64 199.385 1142.31 199.385C1151.99 199.385 1159.29 198.015 1164.79 195.276C1170.27 192.553 1174.29 189.39 1176.85 185.838C1179.38 182.27 1181.04 179.394 1181.77 177.196H1186.96V177.466C1186.96 182.946 1189.16 187.326 1193.54 190.624C1197.94 193.906 1203.5 195.546 1210.27 195.546H1233.27V167.048H1222.29C1217.18 167.048 1214.63 164.308 1214.63 158.828V158.879ZM1181.21 141.899C1181.21 150.845 1178.15 158.016 1172.04 163.395C1165.92 168.79 1158.02 171.479 1148.35 171.479C1141.04 171.479 1135.46 169.923 1131.62 166.828C1127.78 163.716 1125.87 159.708 1125.87 154.769C1125.87 149.831 1127.7 146.008 1131.35 143.268C1135.01 140.529 1140.03 139.159 1146.42 139.159H1181.19V141.899H1181.21Z" fill="white"/>
<path d="M1383.4 84.7842C1379.01 76.294 1372.87 69.6303 1364.9 64.7932C1356.97 59.9561 1347.68 57.5376 1337.1 57.5376C1324.85 57.5376 1315.74 59.6855 1309.7 63.9645C1303.68 68.2604 1299.58 72.7761 1297.37 77.5286H1292.45V59.7194H1258.47V195.597H1293V126.559C1293 113.959 1295.93 104.149 1301.77 97.1137C1307.6 90.0779 1315.84 86.577 1326.42 86.577C1335.74 86.577 1342.9 89.1308 1347.92 94.2385C1352.96 99.3631 1355.46 107.025 1355.46 117.24V195.597H1390V114.517C1390 103.185 1387.8 93.2745 1383.42 84.7842H1383.4Z" fill="white"/>
</svg>
